<svg xmlns="http://www.w3.org/2000/svg" viewBox="0 0 1000 620" width="1000" height="620">
  <defs>
    <style>
      .label { font-family: -apple-system, BlinkMacSystemFont, "Segoe UI", sans-serif; }
      .depth-label { font-size: 9px; fill: rgba(255,255,255,0.7); font-weight: 500; }
      .landmark-label { font-size: 10px; fill: #1e3a5f; font-weight: 600; }
      .title-label { font-size: 16px; fill: #1e3a5f; font-weight: 700; }
      .compass-label { font-size: 11px; fill: #5a4a3a; font-weight: 700; }
    </style>
  </defs>

  <rect width="1000" height="620" fill="#e8e0d4" />

  <!-- Shoreline shadow -->
  <path d="M 198.0,511.4 L 199.8,514.6 L 205.6,515.2 L 208.9,512.3 L 219.1,518.0 L 221.1,517.6 L 214.9,512.4 L 208.5,510.5 L 203.8,513.9 L 199.9,512.2 L 200.4,509.4 L 212.6,502.5 L 220.8,499.6 L 223.8,519.4 L 228.0,529.7 L 231.1,540.6 L 231.9,541.6 L 234.5,543.1 L 236.1,542.8 L 248.9,542.9 L 265.4,521.1 L 274.9,526.5 L 277.2,542.4 L 275.3,547.9 L 272.6,547.2 L 268.0,543.9 L 265.0,546.1 L 256.3,555.2 L 262.8,567.3 L 264.0,568.6 L 277.0,577.2 L 288.0,582.0 L 295.3,575.4 L 302.5,571.3 L 309.6,563.6 L 326.8,556.4 L 345.2,549.9 L 360.2,534.2 L 366.2,533.2 L 367.7,534.7 L 372.8,529.2 L 381.4,522.6 L 399.2,520.8 L 416.4,506.0 L 440.8,487.6 L 469.9,473.3 L 487.7,447.2 L 512.6,422.3 L 534.6,414.0 L 557.1,383.1 L 581.4,355.8 L 611.7,330.3 L 618.2,287.5 L 636.1,275.7 L 646.2,260.6 L 639.6,241.8 L 622.0,224.7 L 611.0,210.8 L 629.9,227.7 L 634.7,233.8 L 645.3,243.0 L 653.5,237.0 L 654.4,228.4 L 658.6,228.2 L 667.7,223.9 L 680.6,200.1 L 683.6,197.9 L 685.8,195.4 L 688.8,189.8 L 687.2,185.5 L 688.1,181.9 L 688.4,174.0 L 696.0,166.3 L 719.2,159.9 L 739.9,135.6 L 755.4,117.2 L 746.5,110.3 L 746.5,106.1 L 751.2,101.6 L 754.4,100.0 L 758.4,99.1 L 772.2,98.3 L 780.2,94.1 L 782.2,90.6 L 783.4,88.0 L 785.9,85.9 L 793.1,83.4 L 795.5,81.1 L 803.0,75.0 L 805.6,73.3 L 805.7,72.4 L 804.1,73.1 L 803.2,72.5 L 803.0,66.9 L 803.5,62.2 L 803.3,60.7 L 805.2,49.2 L 806.0,42.0 L 804.3,42.0 L 803.7,43.8 L 803.0,47.1 L 802.8,51.8 L 801.3,57.9 L 800.2,63.4 L 800.4,68.5 L 798.8,74.5 L 796.2,77.8 L 791.2,81.3 L 788.0,82.2 L 785.0,81.9 L 783.4,82.1 L 782.7,84.2 L 779.4,87.6 L 774.3,93.5 L 770.8,95.1 L 763.6,95.3 L 752.3,96.8 L 744.7,101.9 L 736.4,113.7 L 722.9,126.3 L 722.9,129.8 L 722.1,133.7 L 722.8,136.6 L 722.1,140.3 L 720.5,142.4 L 717.2,143.2 L 714.6,142.4 L 712.7,140.0 L 710.1,136.6 L 710.6,135.3 L 709.0,135.1 L 708.0,136.4 L 705.3,136.6 L 704.7,135.5 L 703.6,134.3 L 702.3,132.5 L 701.5,133.5 L 701.4,134.7 L 699.0,139.5 L 697.2,140.5 L 693.0,142.1 L 691.1,144.6 L 686.1,148.7 L 683.6,153.1 L 681.1,152.8 L 679.5,153.9 L 674.4,157.7 L 663.4,162.4 L 656.7,168.4 L 657.7,184.2 L 662.2,206.2 L 654.7,222.2 L 653.8,226.7 L 649.3,224.5 L 632.4,212.7 L 618.3,201.2 L 612.6,199.5 L 610.9,200.0 L 608.5,202.7 L 606.4,202.3 L 604.2,202.7 L 603.3,203.1 L 597.7,201.0 L 593.7,198.9 L 602.0,202.5 L 604.7,202.1 L 607.8,202.2 L 610.2,199.7 L 610.8,198.2 L 611.9,197.5 L 612.4,196.9 L 612.7,195.3 L 612.6,194.1 L 611.5,193.0 L 606.3,189.4 L 601.9,187.4 L 598.4,187.3 L 595.3,188.1 L 585.8,190.9 L 584.4,191.8 L 583.8,193.6 L 592.1,198.0 L 591.7,198.4 L 581.9,194.2 L 564.4,189.4 L 561.3,189.8 L 557.9,189.7 L 556.0,190.6 L 554.4,193.0 L 542.4,204.1 L 526.2,214.5 L 518.9,217.5 L 517.4,212.3 L 514.0,205.8 L 506.5,203.4 L 496.1,206.8 L 486.8,215.2 L 480.0,226.2 L 472.4,237.8 L 469.8,243.1 L 469.7,254.9 L 468.8,255.2 L 467.9,254.7 L 465.2,241.0 L 458.2,246.4 L 450.5,252.3 L 441.3,262.4 L 439.0,265.2 L 431.6,270.4 L 416.6,273.2 L 408.3,276.7 L 395.4,281.2 L 388.5,285.2 L 380.8,293.8 L 380.5,294.6 L 384.8,293.1 L 399.8,286.9 L 412.5,281.1 L 421.4,282.1 L 424.1,285.0 L 430.4,284.2 L 435.3,280.9 L 441.7,278.3 L 458.5,269.9 L 467.8,256.7 L 468.8,255.9 L 469.6,256.1 L 472.5,261.0 L 478.2,258.2 L 487.5,251.0 L 493.4,243.1 L 496.4,245.3 L 501.9,253.8 L 503.1,263.9 L 504.1,285.3 L 504.7,304.7 L 495.5,316.4 L 493.2,330.0 L 494.1,347.3 L 502.0,357.6 L 488.8,365.9 L 468.7,366.8 L 450.1,370.3 L 441.8,376.0 L 428.0,391.9 L 420.1,399.6 L 416.3,405.6 L 412.2,411.9 L 403.8,420.6 L 386.2,432.6 L 385.3,436.4 L 381.1,442.0 L 361.9,442.7 L 346.1,443.2 L 332.1,448.9 L 319.4,455.3 L 300.3,465.7 L 285.2,473.1 L 269.7,480.1 L 251.6,486.5 L 228.7,494.9 L 220.7,496.2 L 201.6,506.3 L 198.1,510.0 Z" fill="rgba(0,0,0,0.15)" />

  <!-- Lake body -->
  <path id="shoreline" d="M 196.0,509.4 L 197.8,512.6 L 203.6,513.2 L 206.9,510.3 L 217.1,516.0 L 219.1,515.6 L 212.9,510.4 L 206.5,508.5 L 201.8,511.9 L 197.9,510.2 L 198.4,507.4 L 210.6,500.5 L 218.8,497.6 L 221.8,517.4 L 226.0,527.7 L 229.1,538.6 L 229.9,539.6 L 232.5,541.1 L 234.1,540.8 L 246.9,540.9 L 263.4,519.1 L 272.9,524.5 L 275.2,540.4 L 273.3,545.9 L 270.6,545.2 L 266.0,541.9 L 263.0,544.1 L 254.3,553.2 L 260.8,565.3 L 262.0,566.6 L 275.0,575.2 L 286.0,580.0 L 293.3,573.4 L 300.5,569.3 L 307.6,561.6 L 324.8,554.4 L 343.2,547.9 L 358.2,532.2 L 364.2,531.2 L 365.7,532.7 L 370.8,527.2 L 379.4,520.6 L 397.2,518.8 L 414.4,504.0 L 438.8,485.6 L 467.9,471.3 L 485.7,445.2 L 510.6,420.3 L 532.6,412.0 L 555.1,381.1 L 579.4,353.8 L 609.7,328.3 L 616.2,285.5 L 634.1,273.7 L 644.2,258.6 L 637.6,239.8 L 620.0,222.7 L 609.0,208.8 L 627.9,225.7 L 632.7,231.8 L 643.3,241.0 L 651.5,235.0 L 652.4,226.4 L 656.6,226.2 L 665.7,221.9 L 678.6,198.1 L 681.6,195.9 L 683.8,193.4 L 686.8,187.8 L 685.2,183.5 L 686.1,179.9 L 686.4,172.0 L 694.0,164.3 L 717.2,157.9 L 737.9,133.6 L 753.4,115.2 L 744.5,108.3 L 744.5,104.1 L 749.2,99.6 L 752.4,98.0 L 756.4,97.1 L 770.2,96.3 L 778.2,92.1 L 780.2,88.6 L 781.4,86.0 L 783.9,83.9 L 791.1,81.4 L 793.5,79.1 L 801.0,73.0 L 803.6,71.3 L 803.7,70.4 L 802.1,71.1 L 801.2,70.5 L 801.0,64.9 L 801.5,60.2 L 801.3,58.7 L 803.2,47.2 L 804.0,40.0 L 802.3,40.0 L 801.7,41.8 L 801.0,45.1 L 800.8,49.8 L 799.3,55.9 L 798.2,61.4 L 798.4,66.5 L 796.8,72.5 L 794.2,75.8 L 789.2,79.3 L 786.0,80.2 L 783.0,79.9 L 781.4,80.1 L 780.7,82.2 L 777.4,85.6 L 772.3,91.5 L 768.8,93.1 L 761.6,93.3 L 750.3,94.8 L 742.7,99.9 L 734.4,111.7 L 720.9,124.3 L 720.9,127.8 L 720.1,131.7 L 720.8,134.6 L 720.1,138.3 L 718.5,140.4 L 715.2,141.2 L 712.6,140.4 L 710.7,138.0 L 708.1,134.6 L 708.6,133.3 L 707.0,133.1 L 706.0,134.4 L 703.3,134.6 L 702.7,133.5 L 701.6,132.3 L 700.3,130.5 L 699.5,131.5 L 699.4,132.7 L 697.0,137.5 L 695.2,138.5 L 691.0,140.1 L 689.1,142.6 L 684.1,146.7 L 681.6,151.1 L 679.1,150.8 L 677.5,151.9 L 672.4,155.7 L 661.4,160.4 L 654.7,166.4 L 655.7,182.2 L 660.2,204.2 L 652.7,220.2 L 651.8,224.7 L 647.3,222.5 L 630.4,210.7 L 616.3,199.2 L 610.6,197.5 L 608.9,198.0 L 606.5,200.7 L 604.4,200.3 L 602.2,200.7 L 601.3,201.1 L 595.7,199.0 L 591.7,196.9 L 600.0,200.5 L 602.7,200.1 L 605.8,200.2 L 608.2,197.7 L 608.8,196.2 L 609.9,195.5 L 610.4,194.9 L 610.7,193.3 L 610.6,192.1 L 609.5,191.0 L 604.3,187.4 L 599.9,185.4 L 596.4,185.3 L 593.3,186.1 L 583.8,188.9 L 582.4,189.8 L 581.8,191.6 L 590.1,196.0 L 589.7,196.4 L 579.9,192.2 L 562.4,187.4 L 559.3,187.8 L 555.9,187.7 L 554.0,188.6 L 552.4,191.0 L 540.4,202.1 L 524.2,212.5 L 516.9,215.5 L 515.4,210.3 L 512.0,203.8 L 504.5,201.4 L 494.1,204.8 L 484.8,213.2 L 478.0,224.2 L 470.4,235.8 L 467.8,241.1 L 467.7,252.9 L 466.8,253.2 L 465.9,252.7 L 463.2,239.0 L 456.2,244.4 L 448.5,250.3 L 439.3,260.4 L 437.0,263.2 L 429.6,268.4 L 414.6,271.2 L 406.3,274.7 L 393.4,279.2 L 386.5,283.2 L 378.8,291.8 L 378.5,292.6 L 382.8,291.1 L 397.8,284.9 L 410.5,279.1 L 419.4,280.1 L 422.1,283.0 L 428.4,282.2 L 433.3,278.9 L 439.7,276.3 L 456.5,267.9 L 465.8,254.7 L 466.8,253.9 L 467.6,254.1 L 470.5,259.0 L 476.2,256.2 L 485.5,249.0 L 491.4,241.1 L 494.4,243.3 L 499.9,251.8 L 501.1,261.9 L 502.1,283.3 L 502.7,302.7 L 493.5,314.4 L 491.2,328.0 L 492.1,345.3 L 500.0,355.6 L 486.8,363.9 L 466.7,364.8 L 448.1,368.3 L 439.8,374.0 L 426.0,389.9 L 418.1,397.6 L 414.3,403.6 L 410.2,409.9 L 401.8,418.6 L 384.2,430.6 L 383.3,434.4 L 379.1,440.0 L 359.9,440.7 L 344.1,441.2 L 330.1,446.9 L 317.4,453.3 L 298.3,463.7 L 283.2,471.1 L 267.7,478.1 L 249.6,484.5 L 226.7,492.9 L 218.7,494.2 L 199.6,504.3 L 196.1,508.0 Z" fill="#bfdbfe" stroke="#6b8fb5" stroke-width="1.5" />

  <!-- Depth contours -->
  <path id="contour-5" d="M 223.5,490.1 L 226.9,493.8 L 233.5,491.0 L 245.5,496.7 L 239.1,491.0 L 231.2,491.3 L 225.3,490.9 L 232.1,484.3 L 244.5,479.3 L 248.0,499.3 L 254.0,517.0 L 255.6,518.2 L 258.6,519.0 L 281.7,497.9 L 294.3,504.0 L 295.4,523.2 L 292.1,523.1 L 285.4,521.8 L 277.2,530.4 L 283.3,542.1 L 296.2,550.7 L 310.3,553.7 L 319.7,545.2 L 334.9,534.8 L 358.9,525.5 L 378.6,504.8 L 379.6,511.6 L 385.2,499.3 L 408.6,498.8 L 436.5,478.1 L 473.7,455.1 L 503.7,423.4 L 533.2,400.5 L 561.5,358.9 L 604.1,323.5 L 619.4,279.8 L 635.9,259.4 L 621.0,231.1 L 603.5,213.6 L 622.8,229.7 L 635.0,243.2 L 644.9,233.2 L 647.3,229.6 L 661.4,216.4 L 670.3,201.7 L 675.5,196.5 L 673.6,190.3 L 673.1,182.9 L 681.7,172.6 L 711.2,157.5 L 736.3,127.5 L 727.4,119.3 L 732.5,113.1 L 737.1,111.1 L 751.8,110.1 L 760.3,105.1 L 762.1,100.6 L 767.1,97.3 L 773.2,94.2 L 781.5,87.9 L 782.6,86.2 L 780.6,86.7 L 780.1,81.2 L 780.4,76.4 L 782.1,64.9 L 782.0,58.3 L 780.8,59.9 L 779.7,65.5 L 778.6,72.9 L 777.7,80.2 L 776.3,88.2 L 771.2,93.2 L 766.3,95.3 L 762.6,95.0 L 761.4,97.1 L 755.8,103.9 L 750.5,107.1 L 738.4,107.8 L 726.5,113.4 L 712.4,128.7 L 706.4,139.1 L 706.0,143.8 L 705.7,148.7 L 702.9,151.1 L 698.8,150.6 L 695.2,146.4 L 695.1,144.1 L 693.2,144.1 L 690.2,145.3 L 689.1,143.9 L 687.5,141.5 L 686.9,143.0 L 684.4,148.0 L 680.5,149.4 L 677.2,152.7 L 670.8,160.2 L 668.0,160.2 L 665.5,162.4 L 651.7,169.0 L 646.2,180.6 L 650.6,209.3 L 644.9,225.9 L 638.7,226.2 L 615.5,209.6 L 604.9,203.2 L 602.2,205.5 L 599.2,205.8 L 596.7,206.6 L 591.2,204.6 L 587.7,202.4 L 597.7,205.6 L 601.4,205.5 L 603.3,202.0 L 604.7,201.3 L 605.0,199.3 L 604.7,197.8 L 599.2,193.9 L 593.9,191.9 L 589.0,192.7 L 579.3,195.9 L 578.5,197.7 L 586.0,202.1 L 576.7,198.3 L 559.9,193.7 L 554.6,194.2 L 552.2,195.1 L 540.4,207.4 L 521.4,220.1 L 517.4,215.0 L 510.6,206.9 L 497.8,209.9 L 485.8,221.9 L 476.0,238.4 L 473.6,246.5 L 472.7,254.4 L 471.9,242.1 L 462.9,246.3 L 450.9,255.6 L 445.2,263.6 L 430.7,269.5 L 417.0,274.2 L 401.3,280.4 L 391.7,289.9 L 391.5,290.9 L 409.2,283.6 L 427.2,278.7 L 431.5,281.8 L 439.2,279.4 L 447.7,275.7 L 471.3,263.5 L 472.7,255.1 L 473.4,259.0 L 481.3,257.2 L 492.0,247.4 L 498.0,245.3 L 504.3,257.3 L 505.1,282.1 L 503.2,302.3 L 495.1,323.2 L 500.2,345.5 L 491.1,356.3 L 461.2,358.6 L 447.8,365.6 L 430.7,384.1 L 424.4,392.8 L 419.5,402.1 L 396.7,417.6 L 396.7,425.6 L 374.3,426.9 L 351.4,431.8 L 335.2,438.5 L 308.8,452.8 L 289.5,461.3 L 260.0,469.6 L 244.4,476.1 L 224.5,487.2 Z" fill="#bfdbfe" stroke="rgba(255,255,255,0.2)" stroke-width="0.5" />
  <path id="contour-10" d="M 257.9,466.0 L 260.9,469.3 L 266.8,466.8 L 277.5,471.8 L 271.8,466.8 L 264.8,467.1 L 259.5,466.7 L 265.5,460.9 L 276.6,456.3 L 279.7,474.2 L 285.1,490.0 L 286.5,491.0 L 289.2,491.8 L 309.7,472.9 L 321.0,478.4 L 322.0,495.5 L 319.1,495.4 L 313.1,494.2 L 305.7,501.9 L 311.2,512.4 L 322.7,520.0 L 335.2,522.7 L 343.6,515.1 L 357.2,505.9 L 378.6,497.6 L 396.2,479.1 L 397.1,485.1 L 402.0,474.2 L 422.9,473.7 L 447.7,455.3 L 480.9,434.8 L 507.6,406.6 L 533.9,386.2 L 559.2,349.1 L 597.1,317.5 L 610.8,278.6 L 625.4,260.4 L 612.1,235.1 L 596.6,219.5 L 613.8,233.9 L 624.7,245.9 L 633.5,237.0 L 635.6,233.8 L 648.2,222.1 L 656.1,209.0 L 660.8,204.3 L 659.1,198.8 L 658.6,192.2 L 666.3,183.0 L 692.6,169.6 L 715.0,142.8 L 707.0,135.5 L 711.5,130.0 L 715.6,128.2 L 728.8,127.3 L 736.4,122.9 L 737.9,118.8 L 742.4,115.9 L 747.9,113.2 L 755.2,107.5 L 756.2,106.0 L 754.4,106.5 L 754.0,101.5 L 754.3,97.3 L 755.8,87.0 L 755.7,81.1 L 754.6,82.6 L 753.7,87.5 L 752.6,94.2 L 751.9,100.6 L 750.6,107.8 L 746.1,112.3 L 741.7,114.1 L 738.4,113.8 L 737.4,115.7 L 732.4,121.8 L 727.6,124.7 L 716.9,125.2 L 706.2,130.2 L 693.7,143.9 L 688.3,153.1 L 687.9,157.4 L 687.7,161.7 L 685.2,163.9 L 681.5,163.4 L 678.3,159.7 L 678.2,157.6 L 676.5,157.6 L 673.9,158.7 L 672.9,157.5 L 671.4,155.3 L 670.9,156.6 L 668.7,161.1 L 665.2,162.4 L 662.3,165.2 L 656.6,172.0 L 654.1,172.0 L 651.8,173.9 L 639.5,179.8 L 634.6,190.2 L 638.6,215.8 L 633.5,230.5 L 628.0,230.8 L 607.3,216.0 L 597.9,210.3 L 595.4,212.3 L 592.8,212.6 L 590.5,213.3 L 585.7,211.5 L 582.5,209.6 L 591.4,212.4 L 594.7,212.3 L 596.4,209.2 L 597.6,208.6 L 598.0,206.8 L 597.6,205.5 L 592.7,202.0 L 588.0,200.2 L 583.7,200.9 L 575.0,203.8 L 574.3,205.4 L 581.0,209.3 L 572.7,205.9 L 557.7,201.8 L 553.0,202.2 L 550.9,203.1 L 540.3,214.0 L 523.4,225.4 L 519.8,220.8 L 513.8,213.6 L 502.4,216.3 L 491.7,227.0 L 482.9,241.7 L 480.8,248.9 L 480.0,255.9 L 479.3,245.0 L 471.3,248.7 L 460.6,257.0 L 455.5,264.1 L 442.6,269.4 L 430.4,273.6 L 416.3,279.1 L 407.8,287.6 L 407.6,288.5 L 423.4,281.9 L 439.5,277.6 L 443.3,280.4 L 450.1,278.2 L 457.7,274.9 L 478.7,264.1 L 480.0,256.5 L 480.6,260.0 L 487.7,258.4 L 497.2,249.7 L 502.6,247.8 L 508.2,258.5 L 508.9,280.6 L 507.2,298.6 L 500.0,317.3 L 504.5,337.1 L 496.4,346.7 L 469.8,348.8 L 457.8,355.0 L 442.6,371.6 L 436.9,379.3 L 432.6,387.6 L 412.2,401.4 L 412.2,408.5 L 392.3,409.7 L 371.9,414.0 L 357.5,420.0 L 333.9,432.7 L 316.7,440.4 L 290.5,447.7 L 276.5,453.6 L 258.8,463.4 Z" fill="#93c5fd" stroke="rgba(255,255,255,0.2)" stroke-width="0.5" />
  <path id="contour-15" d="M 292.3,441.9 L 295.0,444.8 L 300.2,442.6 L 309.5,447.0 L 304.5,442.6 L 298.4,442.9 L 293.7,442.5 L 299.0,437.4 L 308.7,433.4 L 311.5,449.1 L 316.1,463.0 L 317.4,463.9 L 319.7,464.5 L 337.8,448.0 L 347.7,452.8 L 348.5,467.8 L 346.0,467.7 L 340.8,466.7 L 334.3,473.5 L 339.1,482.6 L 349.2,489.3 L 360.2,491.7 L 367.5,485.1 L 379.5,476.9 L 398.3,469.6 L 413.7,453.4 L 414.5,458.7 L 418.8,449.1 L 437.2,448.7 L 459.0,432.5 L 488.1,414.5 L 511.5,389.7 L 534.7,371.8 L 556.8,339.3 L 590.2,311.5 L 602.1,277.3 L 615.0,261.4 L 603.3,239.2 L 589.7,225.5 L 604.8,238.1 L 614.4,248.7 L 622.1,240.8 L 623.9,238.0 L 635.0,227.7 L 641.9,216.2 L 646.0,212.1 L 644.5,207.3 L 644.2,201.5 L 650.9,193.5 L 674.0,181.6 L 693.6,158.1 L 686.6,151.7 L 690.6,146.9 L 694.2,145.3 L 705.7,144.5 L 712.4,140.6 L 713.8,137.1 L 717.8,134.5 L 722.5,132.1 L 729.0,127.1 L 729.8,125.8 L 728.3,126.2 L 727.9,121.9 L 728.1,118.1 L 729.5,109.1 L 729.4,104.0 L 728.4,105.3 L 727.6,109.6 L 726.7,115.4 L 726.0,121.1 L 724.9,127.4 L 720.9,131.3 L 717.1,132.9 L 714.2,132.7 L 713.3,134.3 L 708.9,139.7 L 704.7,142.2 L 695.3,142.7 L 685.9,147.1 L 674.9,159.1 L 670.2,167.2 L 669.9,170.9 L 669.7,174.7 L 667.5,176.6 L 664.3,176.2 L 661.4,172.9 L 661.4,171.1 L 659.9,171.1 L 657.6,172.1 L 656.7,171.0 L 655.4,169.1 L 655.0,170.3 L 653.0,174.2 L 649.9,175.3 L 647.3,177.8 L 642.4,183.7 L 640.1,183.7 L 638.2,185.5 L 627.4,190.6 L 623.1,199.7 L 626.5,222.2 L 622.1,235.1 L 617.2,235.4 L 599.1,222.4 L 590.8,217.4 L 588.7,219.2 L 586.4,219.4 L 584.3,220.0 L 580.1,218.4 L 577.4,216.8 L 585.1,219.2 L 588.0,219.2 L 589.5,216.4 L 590.6,215.9 L 590.9,214.3 L 590.6,213.2 L 586.3,210.1 L 582.2,208.5 L 578.4,209.2 L 570.7,211.7 L 570.1,213.1 L 576.0,216.5 L 568.7,213.5 L 555.5,209.9 L 551.4,210.3 L 549.6,211.0 L 540.3,220.7 L 525.4,230.6 L 522.3,226.6 L 517.0,220.3 L 506.9,222.6 L 497.6,232.0 L 489.9,244.9 L 488.0,251.3 L 487.3,257.5 L 486.7,247.8 L 479.6,251.1 L 470.3,258.4 L 465.8,264.7 L 454.4,269.3 L 443.7,272.9 L 431.4,277.8 L 423.9,285.3 L 423.8,286.0 L 437.6,280.3 L 451.7,276.5 L 455.1,278.9 L 461.1,277.0 L 467.8,274.1 L 486.2,264.6 L 487.3,258.0 L 487.9,261.1 L 494.0,259.6 L 502.4,252.0 L 507.2,250.3 L 512.0,259.7 L 512.7,279.1 L 511.2,294.9 L 504.8,311.3 L 508.8,328.7 L 501.7,337.2 L 478.4,339.0 L 467.8,344.4 L 454.4,359.0 L 449.5,365.8 L 445.7,373.0 L 427.8,385.2 L 427.8,391.5 L 410.3,392.5 L 392.4,396.3 L 379.7,401.5 L 359.0,412.7 L 343.9,419.4 L 320.9,425.9 L 308.6,431.0 L 293.1,439.6 Z" fill="#60a5fa" stroke="rgba(255,255,255,0.2)" stroke-width="0.5" />
  <path id="contour-20" d="M 326.7,417.8 L 329.0,420.3 L 333.5,418.4 L 341.5,422.2 L 337.2,418.4 L 331.9,418.6 L 327.9,418.3 L 332.5,413.9 L 340.8,410.5 L 343.2,424.0 L 347.2,435.9 L 348.3,436.7 L 350.3,437.3 L 365.9,423.0 L 374.4,427.2 L 375.1,440.1 L 373.0,440.0 L 368.4,439.2 L 362.8,445.0 L 367.0,452.9 L 375.7,458.6 L 385.2,460.7 L 391.5,455.0 L 401.8,448.0 L 418.0,441.7 L 431.2,427.7 L 431.9,432.3 L 435.6,424.0 L 451.4,423.7 L 470.2,409.7 L 495.3,394.2 L 515.5,372.9 L 535.4,357.4 L 554.5,329.4 L 583.2,305.5 L 593.5,276.1 L 604.6,262.3 L 594.5,243.2 L 582.8,231.5 L 595.8,242.3 L 604.0,251.4 L 610.7,244.7 L 612.3,242.2 L 621.8,233.4 L 627.8,223.5 L 631.3,219.9 L 630.0,215.8 L 629.7,210.8 L 635.5,203.9 L 655.4,193.7 L 672.3,173.4 L 666.3,167.9 L 669.7,163.8 L 672.8,162.4 L 682.7,161.7 L 688.5,158.4 L 689.6,155.3 L 693.1,153.1 L 697.1,151.0 L 702.7,146.8 L 703.5,145.6 L 702.1,146.0 L 701.8,142.2 L 702.0,139.0 L 703.2,131.3 L 703.1,126.8 L 702.2,127.9 L 701.6,131.6 L 700.7,136.7 L 700.2,141.6 L 699.2,147.0 L 695.8,150.4 L 692.5,151.7 L 690.0,151.5 L 689.2,153.0 L 685.4,157.6 L 681.8,159.7 L 673.7,160.2 L 665.7,163.9 L 656.2,174.3 L 652.1,181.2 L 651.8,184.5 L 651.6,187.7 L 649.8,189.4 L 647.0,189.0 L 644.6,186.2 L 644.5,184.6 L 643.2,184.6 L 641.2,185.5 L 640.5,184.5 L 639.4,182.9 L 639.0,183.9 L 637.3,187.3 L 634.7,188.2 L 632.4,190.4 L 628.1,195.5 L 626.2,195.5 L 624.5,197.0 L 615.2,201.4 L 611.5,209.3 L 614.5,228.6 L 610.7,239.8 L 606.5,240.0 L 590.9,228.8 L 583.8,224.5 L 581.9,226.0 L 579.9,226.2 L 578.2,226.7 L 574.5,225.4 L 572.2,224.0 L 578.9,226.1 L 581.3,226.0 L 582.6,223.6 L 583.6,223.2 L 583.8,221.8 L 583.6,220.9 L 579.8,218.2 L 576.3,216.8 L 573.0,217.4 L 566.5,219.6 L 565.9,220.8 L 571.0,223.7 L 564.7,221.2 L 553.4,218.1 L 549.8,218.4 L 548.2,219.0 L 540.2,227.3 L 527.5,235.9 L 524.7,232.4 L 520.2,227.0 L 511.5,229.0 L 503.5,237.1 L 496.8,248.2 L 495.2,253.7 L 494.6,259.0 L 494.1,250.7 L 488.0,253.5 L 480.0,259.8 L 476.1,265.2 L 466.3,269.2 L 457.1,272.3 L 446.5,276.5 L 440.0,282.9 L 439.9,283.6 L 451.8,278.6 L 464.0,275.4 L 466.9,277.5 L 472.0,275.8 L 477.8,273.3 L 493.7,265.1 L 494.6,259.4 L 495.1,262.1 L 500.4,260.8 L 507.6,254.3 L 511.7,252.8 L 515.9,260.9 L 516.5,277.6 L 515.2,291.2 L 509.7,305.4 L 513.1,320.4 L 507.0,327.6 L 486.9,329.2 L 477.9,333.9 L 466.3,346.4 L 462.0,352.2 L 458.8,358.5 L 443.4,369.0 L 443.4,374.4 L 428.3,375.2 L 412.9,378.5 L 402.0,383.0 L 384.2,392.7 L 371.2,398.4 L 351.3,404.0 L 340.8,408.4 L 327.4,415.8 Z" fill="#3b82f6" stroke="rgba(255,255,255,0.2)" stroke-width="0.5" />
  <path id="contour-25" d="M 361.1,393.7 L 363.0,395.8 L 366.8,394.2 L 373.5,397.4 L 369.9,394.3 L 365.5,394.4 L 362.1,394.1 L 365.9,390.5 L 372.9,387.6 L 374.9,398.9 L 378.3,408.9 L 379.2,409.6 L 380.9,410.1 L 394.0,398.1 L 401.1,401.6 L 401.7,412.4 L 399.9,412.3 L 396.1,411.6 L 391.4,416.5 L 394.9,423.1 L 402.2,427.9 L 410.1,429.7 L 415.4,424.9 L 424.1,419.0 L 437.6,413.8 L 448.8,402.1 L 449.3,405.8 L 452.5,398.9 L 465.7,398.6 L 481.5,386.9 L 502.5,373.9 L 519.4,356.0 L 536.1,343.1 L 552.1,319.6 L 576.2,299.6 L 584.8,274.9 L 594.2,263.3 L 585.7,247.3 L 575.9,237.4 L 586.8,246.5 L 593.7,254.2 L 599.3,248.5 L 600.6,246.5 L 608.6,239.0 L 613.6,230.7 L 616.6,227.7 L 615.5,224.3 L 615.2,220.1 L 620.1,214.3 L 636.7,205.8 L 650.9,188.7 L 645.9,184.1 L 648.8,180.6 L 651.4,179.5 L 659.7,178.9 L 664.5,176.1 L 665.5,173.6 L 668.4,171.7 L 671.8,170.0 L 676.5,166.4 L 677.1,165.5 L 676.0,165.7 L 675.7,162.6 L 675.8,159.9 L 676.8,153.4 L 676.8,149.6 L 676.1,150.6 L 675.5,153.7 L 674.8,157.9 L 674.3,162.0 L 673.5,166.5 L 670.6,169.4 L 667.9,170.5 L 665.8,170.4 L 665.1,171.6 L 662.0,175.4 L 658.9,177.3 L 652.1,177.6 L 645.4,180.8 L 637.4,189.5 L 634.0,195.3 L 633.8,198.0 L 633.6,200.8 L 632.1,202.1 L 629.7,201.9 L 627.7,199.5 L 627.6,198.2 L 626.6,198.2 L 624.9,198.8 L 624.3,198.1 L 623.3,196.7 L 623.0,197.5 L 621.6,200.3 L 619.4,201.2 L 617.5,203.0 L 613.9,207.3 L 612.3,207.3 L 610.9,208.5 L 603.1,212.3 L 600.0,218.8 L 602.5,235.0 L 599.3,244.4 L 595.8,244.5 L 582.7,235.2 L 576.7,231.5 L 575.1,232.8 L 573.5,233.0 L 572.0,233.5 L 568.9,232.3 L 567.0,231.1 L 572.6,232.9 L 574.7,232.8 L 575.7,230.9 L 576.5,230.5 L 576.7,229.4 L 576.5,228.5 L 573.4,226.3 L 570.4,225.1 L 567.7,225.6 L 562.2,227.4 L 561.7,228.5 L 566.0,230.9 L 560.7,228.8 L 551.2,226.2 L 548.2,226.4 L 546.9,227.0 L 540.2,233.9 L 529.5,241.1 L 527.2,238.2 L 523.4,233.7 L 516.1,235.3 L 509.3,242.2 L 503.8,251.5 L 502.4,256.0 L 501.9,260.5 L 501.5,253.5 L 496.4,255.9 L 489.6,261.2 L 486.4,265.7 L 478.2,269.0 L 470.4,271.7 L 461.6,275.2 L 456.1,280.6 L 456.0,281.2 L 466.0,277.0 L 476.2,274.2 L 478.7,276.0 L 483.0,274.7 L 487.8,272.5 L 501.1,265.7 L 501.9,260.9 L 502.3,263.1 L 506.8,262.1 L 512.8,256.6 L 516.3,255.4 L 519.8,262.1 L 520.3,276.2 L 519.2,287.5 L 514.6,299.4 L 517.5,312.0 L 512.3,318.1 L 495.5,319.4 L 487.9,323.3 L 478.2,333.8 L 474.6,338.7 L 471.9,344.0 L 459.0,352.8 L 459.0,357.3 L 446.3,358.0 L 433.4,360.8 L 424.2,364.6 L 409.3,372.6 L 398.4,377.5 L 381.7,382.1 L 372.9,385.8 L 361.7,392.1 Z" fill="#2563eb" stroke="rgba(255,255,255,0.2)" stroke-width="0.5" />
  <path id="contour-30" d="M 388.6,374.5 L 390.2,376.2 L 393.4,374.9 L 399.1,377.6 L 396.0,374.9 L 392.3,375.0 L 389.4,374.8 L 392.7,371.7 L 398.6,369.3 L 400.3,378.9 L 403.2,387.3 L 404.0,387.9 L 405.4,388.3 L 416.4,378.2 L 422.4,381.1 L 423.0,390.3 L 421.4,390.2 L 418.2,389.6 L 414.3,393.7 L 417.2,399.3 L 423.4,403.4 L 430.1,404.9 L 434.6,400.8 L 441.9,395.8 L 453.4,391.4 L 462.8,381.5 L 463.3,384.7 L 465.9,378.9 L 477.1,378.6 L 490.5,368.7 L 508.2,357.7 L 522.6,342.6 L 536.7,331.6 L 550.3,311.7 L 570.6,294.8 L 577.9,273.9 L 585.8,264.1 L 578.7,250.6 L 570.3,242.2 L 579.6,249.9 L 585.4,256.4 L 590.1,251.6 L 591.3,249.8 L 598.0,243.6 L 602.3,236.5 L 604.8,234.0 L 603.9,231.1 L 603.6,227.5 L 607.7,222.6 L 621.9,215.4 L 633.9,201.0 L 629.6,197.1 L 632.0,194.1 L 634.2,193.2 L 641.3,192.7 L 645.3,190.3 L 646.2,188.2 L 648.6,186.6 L 651.5,185.1 L 655.5,182.1 L 656.0,181.3 L 655.0,181.5 L 654.8,178.9 L 654.9,176.6 L 655.8,171.1 L 655.7,167.9 L 655.1,168.7 L 654.6,171.4 L 654.1,174.9 L 653.7,178.4 L 653.0,182.2 L 650.5,184.6 L 648.2,185.6 L 646.4,185.5 L 645.9,186.5 L 643.2,189.7 L 640.6,191.3 L 634.9,191.6 L 629.2,194.3 L 622.4,201.6 L 619.6,206.6 L 619.3,208.8 L 619.2,211.2 L 617.9,212.3 L 615.9,212.1 L 614.2,210.1 L 614.2,209.0 L 613.2,209.0 L 611.8,209.5 L 611.3,208.9 L 610.5,207.7 L 610.2,208.4 L 609.0,210.8 L 607.2,211.5 L 605.6,213.1 L 602.5,216.7 L 601.2,216.7 L 600.0,217.7 L 593.4,220.9 L 590.7,226.4 L 592.9,240.2 L 590.1,248.1 L 587.2,248.2 L 576.1,240.3 L 571.0,237.2 L 569.7,238.3 L 568.3,238.5 L 567.1,238.8 L 564.5,237.9 L 562.8,236.9 L 567.6,238.4 L 569.3,238.3 L 570.2,236.6 L 570.9,236.3 L 571.1,235.4 L 570.9,234.7 L 568.3,232.8 L 565.8,231.8 L 563.4,232.2 L 558.8,233.7 L 558.4,234.6 L 562.0,236.7 L 557.5,234.9 L 549.5,232.7 L 547.0,232.9 L 545.8,233.3 L 540.1,239.2 L 531.1,245.3 L 529.1,242.9 L 525.9,239.0 L 519.8,240.4 L 514.1,246.2 L 509.3,254.1 L 508.2,257.9 L 507.8,261.7 L 507.4,255.8 L 503.1,257.9 L 497.4,262.3 L 494.6,266.1 L 487.7,268.9 L 481.1,271.2 L 473.6,274.1 L 469.0,278.7 L 469.0,279.2 L 477.4,275.7 L 486.0,273.3 L 488.1,274.8 L 491.7,273.7 L 495.8,271.9 L 507.1,266.1 L 507.8,262.0 L 508.1,263.9 L 511.9,263.0 L 517.0,258.4 L 519.9,257.4 L 522.9,263.1 L 523.3,275.0 L 522.4,284.6 L 518.5,294.6 L 520.9,305.3 L 516.6,310.4 L 502.3,311.5 L 495.9,314.9 L 487.7,323.8 L 484.7,327.9 L 482.3,332.3 L 471.4,339.8 L 471.4,343.6 L 460.7,344.2 L 449.8,346.6 L 442.0,349.8 L 429.4,356.6 L 420.2,360.7 L 406.1,364.6 L 398.6,367.8 L 389.1,373.0 Z" fill="#1d4ed8" stroke="rgba(255,255,255,0.2)" stroke-width="0.5" />
  <path id="contour-35" d="M 416.1,355.2 L 417.5,356.6 L 420.0,355.5 L 424.7,357.7 L 422.2,355.5 L 419.1,355.6 L 416.8,355.5 L 419.5,352.9 L 424.3,350.9 L 425.7,358.8 L 428.0,365.7 L 428.7,366.2 L 429.8,366.5 L 438.9,358.2 L 443.8,360.6 L 444.2,368.1 L 443.0,368.1 L 440.4,367.6 L 437.1,370.9 L 439.5,375.5 L 444.6,378.9 L 450.1,380.1 L 453.7,376.7 L 459.7,372.7 L 469.1,369.0 L 476.8,360.9 L 477.2,363.6 L 479.4,358.8 L 488.6,358.6 L 499.5,350.5 L 514.0,341.5 L 525.7,329.1 L 537.3,320.1 L 548.4,303.8 L 565.1,290.0 L 571.0,272.9 L 577.5,264.9 L 571.6,253.8 L 564.8,247.0 L 572.4,253.3 L 577.2,258.6 L 581.0,254.6 L 581.9,253.2 L 587.5,248.1 L 590.9,242.3 L 593.0,240.3 L 592.2,237.9 L 592.1,235.0 L 595.4,230.9 L 607.0,225.0 L 616.8,213.3 L 613.3,210.1 L 615.3,207.6 L 617.1,206.9 L 622.8,206.5 L 626.2,204.5 L 626.9,202.8 L 628.8,201.5 L 631.2,200.3 L 634.5,197.8 L 634.9,197.1 L 634.1,197.3 L 633.9,195.2 L 634.0,193.3 L 634.7,188.8 L 634.7,186.2 L 634.2,186.8 L 633.8,189.0 L 633.3,191.9 L 633.0,194.8 L 632.4,197.9 L 630.4,199.9 L 628.5,200.7 L 627.1,200.6 L 626.6,201.4 L 624.4,204.0 L 622.3,205.3 L 617.6,205.6 L 612.9,207.8 L 607.4,213.8 L 605.1,217.8 L 604.9,219.7 L 604.8,221.6 L 603.7,222.5 L 602.1,222.3 L 600.7,220.7 L 600.7,219.8 L 599.9,219.8 L 598.8,220.2 L 598.3,219.7 L 597.7,218.8 L 597.5,219.3 L 596.5,221.3 L 594.9,221.9 L 593.6,223.1 L 591.2,226.1 L 590.0,226.1 L 589.1,226.9 L 583.7,229.5 L 581.5,234.1 L 583.2,245.3 L 581.0,251.8 L 578.6,251.9 L 569.5,245.4 L 565.4,242.9 L 564.3,243.8 L 563.1,243.9 L 562.1,244.2 L 560.0,243.4 L 558.6,242.6 L 562.5,243.8 L 564.0,243.8 L 564.7,242.4 L 565.3,242.2 L 565.4,241.4 L 565.3,240.8 L 563.1,239.3 L 561.1,238.5 L 559.2,238.8 L 555.3,240.0 L 555.0,240.8 L 558.0,242.5 L 554.3,241.0 L 547.7,239.2 L 545.7,239.4 L 544.8,239.7 L 540.1,244.5 L 532.7,249.5 L 531.1,247.5 L 528.5,244.4 L 523.4,245.5 L 518.8,250.2 L 514.9,256.7 L 514.0,259.8 L 513.6,262.9 L 513.3,258.1 L 509.8,259.8 L 505.1,263.4 L 502.9,266.5 L 497.2,268.8 L 491.8,270.7 L 485.7,273.1 L 481.9,276.8 L 481.9,277.2 L 488.8,274.4 L 495.8,272.4 L 497.5,273.7 L 500.5,272.7 L 503.9,271.3 L 513.1,266.5 L 513.6,263.2 L 513.9,264.7 L 517.0,264.0 L 521.2,260.2 L 523.5,259.4 L 526.0,264.1 L 526.3,273.8 L 525.6,281.7 L 522.4,289.9 L 524.4,298.6 L 520.8,302.8 L 509.1,303.7 L 503.9,306.4 L 497.2,313.7 L 494.7,317.1 L 492.8,320.7 L 483.9,326.8 L 483.9,329.9 L 475.1,330.4 L 466.2,332.4 L 459.8,335.0 L 449.5,340.6 L 441.9,343.9 L 430.4,347.1 L 424.3,349.7 L 416.5,354.0 Z" fill="#1e40af" stroke="rgba(255,255,255,0.2)" stroke-width="0.5" />
  <path id="contour-40" d="M 443.6,335.9 L 444.7,337.0 L 446.7,336.2 L 450.3,337.9 L 448.4,336.2 L 446.0,336.3 L 444.2,336.1 L 446.2,334.1 L 450.0,332.6 L 451.1,338.7 L 452.9,344.1 L 453.4,344.4 L 454.3,344.7 L 461.3,338.3 L 465.2,340.1 L 465.5,346.0 L 464.5,345.9 L 462.5,345.5 L 460.0,348.2 L 461.8,351.7 L 465.8,354.3 L 470.0,355.2 L 472.9,352.7 L 477.5,349.5 L 484.9,346.7 L 490.8,340.4 L 491.2,342.4 L 492.8,338.7 L 500.0,338.5 L 508.5,332.2 L 519.8,325.2 L 528.9,315.6 L 537.9,308.6 L 546.5,296.0 L 559.5,285.2 L 564.1,271.9 L 569.1,265.7 L 564.6,257.1 L 559.3,251.7 L 565.2,256.6 L 568.9,260.7 L 571.9,257.7 L 572.6,256.6 L 576.9,252.6 L 579.6,248.1 L 581.2,246.5 L 580.6,244.6 L 580.5,242.4 L 583.1,239.3 L 592.1,234.7 L 599.7,225.5 L 597.0,223.0 L 598.5,221.2 L 599.9,220.5 L 604.4,220.2 L 607.0,218.7 L 607.6,217.3 L 609.1,216.3 L 610.9,215.4 L 613.5,213.5 L 613.8,213.0 L 613.2,213.1 L 613.0,211.4 L 613.1,210.0 L 613.7,206.5 L 613.6,204.5 L 613.2,205.0 L 612.9,206.7 L 612.6,208.9 L 612.3,211.1 L 611.9,213.6 L 610.3,215.1 L 608.8,215.7 L 607.7,215.6 L 607.4,216.3 L 605.6,218.4 L 604.0,219.3 L 600.4,219.5 L 596.7,221.2 L 592.4,225.9 L 590.6,229.1 L 590.5,230.5 L 590.4,232.0 L 589.5,232.7 L 588.3,232.6 L 587.2,231.3 L 587.2,230.6 L 586.6,230.6 L 585.7,231.0 L 585.3,230.5 L 584.8,229.8 L 584.7,230.3 L 583.9,231.8 L 582.7,232.2 L 581.7,233.2 L 579.8,235.5 L 578.9,235.5 L 578.2,236.2 L 574.0,238.2 L 572.3,241.7 L 573.6,250.4 L 571.9,255.5 L 570.0,255.6 L 562.9,250.5 L 559.7,248.6 L 558.9,249.3 L 558.0,249.4 L 557.2,249.6 L 555.6,249.0 L 554.5,248.3 L 557.5,249.3 L 558.6,249.3 L 559.2,248.2 L 559.6,248.0 L 559.8,247.4 L 559.6,246.9 L 558.0,245.7 L 556.4,245.1 L 554.9,245.4 L 551.9,246.4 L 551.7,246.9 L 554.0,248.2 L 551.1,247.1 L 546.0,245.7 L 544.4,245.8 L 543.7,246.1 L 540.1,249.9 L 534.3,253.7 L 533.1,252.2 L 531.0,249.7 L 527.1,250.6 L 523.5,254.3 L 520.5,259.3 L 519.7,261.8 L 519.5,264.2 L 519.2,260.4 L 516.5,261.7 L 512.9,264.5 L 511.1,267.0 L 506.7,268.8 L 502.5,270.2 L 497.7,272.1 L 494.8,275.0 L 494.8,275.3 L 500.1,273.0 L 505.6,271.6 L 506.9,272.5 L 509.3,271.8 L 511.9,270.6 L 519.0,266.9 L 519.5,264.4 L 519.7,265.6 L 522.1,265.0 L 525.3,262.0 L 527.2,261.4 L 529.1,265.0 L 529.3,272.6 L 528.8,278.7 L 526.3,285.1 L 527.8,291.9 L 525.1,295.2 L 516.0,295.9 L 511.9,298.0 L 506.7,303.6 L 504.8,306.3 L 503.3,309.1 L 496.3,313.8 L 496.3,316.3 L 489.5,316.7 L 482.6,318.1 L 477.6,320.2 L 469.6,324.5 L 463.7,327.1 L 454.8,329.7 L 450.0,331.6 L 443.9,335.0 Z" fill="#1e3a8a" stroke="rgba(255,255,255,0.2)" stroke-width="0.5" />
  <path id="contour-45" d="M 471.2,316.6 L 471.9,317.4 L 473.3,316.8 L 475.9,318.0 L 474.5,316.8 L 472.8,316.9 L 471.5,316.8 L 473.0,315.4 L 475.7,314.3 L 476.5,318.6 L 477.8,322.5 L 478.1,322.7 L 478.8,322.9 L 483.8,318.3 L 486.5,319.6 L 486.8,323.8 L 486.1,323.8 L 484.6,323.5 L 482.8,325.4 L 484.2,327.9 L 487.0,329.8 L 490.0,330.4 L 492.1,328.6 L 495.4,326.3 L 500.6,324.3 L 504.9,319.8 L 505.1,321.3 L 506.3,318.6 L 511.4,318.5 L 517.5,314.0 L 525.5,309.0 L 532.1,302.1 L 538.5,297.1 L 544.6,288.1 L 553.9,280.4 L 557.2,270.9 L 560.8,266.5 L 557.6,260.3 L 553.8,256.5 L 558.0,260.0 L 560.6,262.9 L 562.8,260.8 L 563.3,260.0 L 566.4,257.1 L 568.3,253.9 L 569.4,252.8 L 569.0,251.4 L 568.9,249.8 L 570.8,247.6 L 577.2,244.3 L 582.6,237.8 L 580.7,236.0 L 581.8,234.7 L 582.8,234.2 L 586.0,234.0 L 587.9,232.9 L 588.2,231.9 L 589.3,231.2 L 590.7,230.6 L 592.5,229.2 L 592.7,228.8 L 592.3,228.9 L 592.2,227.7 L 592.2,226.7 L 592.6,224.2 L 592.6,222.7 L 592.3,223.1 L 592.1,224.3 L 591.8,225.9 L 591.6,227.5 L 591.3,229.2 L 590.2,230.3 L 589.2,230.8 L 588.4,230.7 L 588.1,231.2 L 586.9,232.7 L 585.7,233.4 L 583.1,233.5 L 580.5,234.7 L 577.4,238.1 L 576.1,240.3 L 576.0,241.3 L 576.0,242.4 L 575.4,242.9 L 574.5,242.8 L 573.7,241.9 L 573.7,241.4 L 573.3,241.4 L 572.6,241.7 L 572.4,241.4 L 572.0,240.8 L 571.9,241.2 L 571.4,242.2 L 570.5,242.6 L 569.8,243.3 L 568.4,244.9 L 567.8,244.9 L 567.2,245.4 L 564.2,246.8 L 563.0,249.3 L 564.0,255.6 L 562.8,259.2 L 561.4,259.2 L 556.4,255.6 L 554.1,254.2 L 553.5,254.7 L 552.8,254.8 L 552.3,255.0 L 551.1,254.5 L 550.3,254.1 L 552.5,254.8 L 553.3,254.7 L 553.7,254.0 L 554.0,253.8 L 554.1,253.4 L 554.0,253.1 L 552.8,252.2 L 551.7,251.8 L 550.6,252.0 L 548.5,252.7 L 548.3,253.1 L 550.0,254.0 L 547.9,253.2 L 544.3,252.2 L 543.1,252.3 L 542.6,252.5 L 540.0,255.2 L 535.9,257.9 L 535.0,256.8 L 533.6,255.1 L 530.8,255.7 L 528.2,258.3 L 526.0,261.9 L 525.5,263.7 L 525.3,265.4 L 525.2,262.7 L 523.2,263.6 L 520.6,265.6 L 519.4,267.4 L 516.2,268.7 L 513.2,269.7 L 509.8,271.0 L 507.7,273.1 L 507.7,273.3 L 511.5,271.7 L 515.4,270.7 L 516.4,271.3 L 518.0,270.8 L 519.9,270.0 L 525.0,267.4 L 525.3,265.5 L 525.5,266.4 L 527.2,266.0 L 529.5,263.9 L 530.8,263.4 L 532.2,266.0 L 532.4,271.4 L 532.0,275.8 L 530.2,280.3 L 531.3,285.2 L 529.3,287.5 L 522.8,288.0 L 519.9,289.5 L 516.2,293.6 L 514.8,295.5 L 513.8,297.5 L 508.8,300.9 L 508.8,302.6 L 503.9,302.9 L 499.0,303.9 L 495.4,305.4 L 489.7,308.5 L 485.5,310.4 L 479.1,312.2 L 475.7,313.6 L 471.4,316.0 Z" fill="#172554" stroke="rgba(255,255,255,0.2)" stroke-width="0.5" />
  <path id="contour-50" d="M 498.7,297.3 L 499.1,297.8 L 500.0,297.5 L 501.5,298.2 L 500.7,297.5 L 499.7,297.5 L 498.9,297.4 L 499.8,296.6 L 501.4,295.9 L 501.9,298.5 L 502.6,300.8 L 502.9,301.0 L 503.2,301.1 L 506.3,298.4 L 507.9,299.2 L 508.0,301.7 L 507.6,301.6 L 506.7,301.5 L 505.7,302.6 L 506.5,304.1 L 508.2,305.2 L 510.0,305.6 L 511.2,304.5 L 513.2,303.2 L 516.3,302.0 L 518.9,299.3 L 519.0,300.1 L 519.8,298.5 L 522.8,298.5 L 526.5,295.8 L 531.3,292.8 L 535.2,288.6 L 539.1,285.7 L 542.8,280.2 L 548.3,275.6 L 550.3,269.9 L 552.5,267.2 L 550.5,263.6 L 548.2,261.3 L 550.8,263.4 L 552.3,265.1 L 553.6,263.8 L 553.9,263.4 L 555.8,261.6 L 556.9,259.7 L 557.6,259.0 L 557.4,258.2 L 557.3,257.3 L 558.4,255.9 L 562.3,254.0 L 565.6,250.0 L 564.4,249.0 L 565.1,248.2 L 565.7,247.9 L 567.6,247.8 L 568.7,247.1 L 568.9,246.5 L 569.6,246.1 L 570.4,245.7 L 571.5,244.9 L 571.6,244.7 L 571.3,244.7 L 571.3,244.0 L 571.3,243.4 L 571.5,241.9 L 571.5,241.0 L 571.4,241.2 L 571.2,242.0 L 571.1,242.9 L 571.0,243.9 L 570.8,244.9 L 570.1,245.6 L 569.5,245.8 L 569.0,245.8 L 568.8,246.1 L 568.1,247.0 L 567.4,247.4 L 565.8,247.5 L 564.3,248.2 L 562.4,250.2 L 561.7,251.6 L 561.6,252.2 L 561.6,252.8 L 561.2,253.1 L 560.7,253.1 L 560.2,252.5 L 560.2,252.2 L 559.9,252.2 L 559.5,252.4 L 559.4,252.2 L 559.2,251.9 L 559.1,252.1 L 558.8,252.7 L 558.3,252.9 L 557.8,253.3 L 557.0,254.3 L 556.6,254.3 L 556.3,254.6 L 554.5,255.5 L 553.8,257.0 L 554.4,260.7 L 553.6,262.9 L 552.8,262.9 L 549.8,260.8 L 548.4,259.9 L 548.1,260.2 L 547.7,260.3 L 547.3,260.4 L 546.6,260.1 L 546.2,259.8 L 547.5,260.2 L 548.0,260.2 L 548.2,259.8 L 548.4,259.7 L 548.4,259.4 L 548.4,259.2 L 547.7,258.7 L 547.0,258.4 L 546.3,258.5 L 545.1,259.0 L 545.0,259.2 L 546.0,259.8 L 544.7,259.3 L 542.5,258.7 L 541.9,258.7 L 541.5,258.9 L 540.0,260.5 L 537.5,262.1 L 537.0,261.5 L 536.1,260.4 L 534.4,260.8 L 532.9,262.4 L 531.6,264.5 L 531.3,265.6 L 531.2,266.6 L 531.1,265.0 L 529.9,265.5 L 528.3,266.8 L 527.6,267.8 L 525.7,268.6 L 523.9,269.2 L 521.9,270.0 L 520.6,271.2 L 520.6,271.4 L 522.9,270.4 L 525.2,269.8 L 525.8,270.2 L 526.8,269.9 L 527.9,269.4 L 531.0,267.8 L 531.2,266.7 L 531.3,267.2 L 532.3,267.0 L 533.7,265.7 L 534.5,265.4 L 535.3,267.0 L 535.4,270.2 L 535.2,272.8 L 534.1,275.6 L 534.8,278.5 L 533.6,279.9 L 529.7,280.2 L 527.9,281.1 L 525.7,283.5 L 524.9,284.6 L 524.2,285.9 L 521.3,287.9 L 521.3,288.9 L 518.3,289.1 L 515.4,289.7 L 513.2,290.6 L 509.8,292.5 L 507.3,293.6 L 503.4,294.7 L 501.4,295.5 L 498.8,297.0 Z" fill="#0f172a" stroke="rgba(255,255,255,0.2)" stroke-width="0.5" />

  <!-- Depth labels -->
  <text x="665" y="205" class="label depth-label" text-anchor="middle">5'</text>
  <text x="646" y="214" class="label depth-label" text-anchor="middle">15'</text>
  <text x="622" y="226" class="label depth-label" text-anchor="middle">25'</text>
  <text x="597" y="239" class="label depth-label" text-anchor="middle">35'</text>
  <text x="574" y="251" class="label depth-label" text-anchor="middle">45'</text>

  <!-- Fishing zones -->
  <g id="zones">
    <circle data-zone="north-shore" cx="395.9" cy="141.9" r="25" fill="transparent" stroke="none" />
    <circle data-zone="south-shore" cx="361.3" cy="423.8" r="25" fill="transparent" stroke="none" />
    <circle data-zone="east-end" cx="707.1" cy="94.9" r="25" fill="transparent" stroke="none" />
    <circle data-zone="west-end" cx="223.0" cy="517.7" r="25" fill="transparent" stroke="none" />
    <circle data-zone="lake-lawn" cx="637.9" cy="160.7" r="25" fill="transparent" stroke="none" />
    <circle data-zone="jackson-creek" cx="741.7" cy="47.9" r="25" fill="transparent" stroke="none" />
    <circle data-zone="assembly-park" cx="465.0" cy="188.9" r="25" fill="transparent" stroke="none" />
    <circle data-zone="brown-channel" cx="209.2" cy="499.0" r="25" fill="transparent" stroke="none" />
    <circle data-zone="delavan-inlet" cx="292.2" cy="564.7" r="25" fill="transparent" stroke="none" />
    <circle data-zone="weed-beds" cx="499.6" cy="254.7" r="25" fill="transparent" stroke="none" />
    <circle data-zone="deep-hole" cx="465.0" cy="329.8" r="25" fill="transparent" stroke="none" />
    <circle data-zone="mid-lake" cx="430.5" cy="348.6" r="25" fill="transparent" stroke="none" />
    <circle data-zone="conf-point" cx="589.5" cy="94.9" r="25" fill="transparent" stroke="none" />
    <circle data-zone="shore-club" cx="257.6" cy="442.6" r="25" fill="transparent" stroke="none" />
    <circle data-zone="south-end" cx="292.2" cy="517.7" r="25" fill="transparent" stroke="none" />
  </g>

  <!-- Landmarks -->
  <g id="landmarks">
    <g transform="translate(672.5,141.9)">
      <circle r="3" fill="#c75c2a" stroke="white" stroke-width="1" />
      <text x="6" y="4" class="label landmark-label">Lake Lawn Resort</text>
    </g>
    <g transform="translate(762.4,66.7)">
      <circle r="3" fill="#c75c2a" stroke="white" stroke-width="1" />
      <text x="6" y="4" class="label landmark-label">Jackson Creek</text>
    </g>
    <g transform="translate(195.3,508.4)">
      <circle r="3" fill="#c75c2a" stroke="white" stroke-width="1" />
      <text x="6" y="4" class="label landmark-label">Brown's Channel</text>
    </g>
    <g transform="translate(478.9,160.7)">
      <circle r="3" fill="#c75c2a" stroke="white" stroke-width="1" />
      <text x="6" y="4" class="label landmark-label">Assembly Park</text>
    </g>
    <g transform="translate(603.3,66.7)">
      <circle r="3" fill="#c75c2a" stroke="white" stroke-width="1" />
      <text x="6" y="4" class="label landmark-label">Conference Point</text>
    </g>
    <g transform="translate(278.3,583.5)">
      <circle r="3" fill="#c75c2a" stroke="white" stroke-width="1" />
      <text x="6" y="4" class="label landmark-label">Delavan Inlet</text>
    </g>
  </g>

  <!-- Vegetation -->
  <g id="vegetation">
    <text x="257.6" y="423.8" font-size="12" fill="#2d8a4e" opacity="0.6" text-anchor="middle">⌇</text>
    <text x="292.2" y="470.8" font-size="12" fill="#2d8a4e" opacity="0.6" text-anchor="middle">⌇</text>
    <text x="326.7" y="499.0" font-size="12" fill="#2d8a4e" opacity="0.6" text-anchor="middle">⌇</text>
    <text x="672.5" y="123.1" font-size="12" fill="#2d8a4e" opacity="0.6" text-anchor="middle">⌇</text>
    <text x="707.1" y="94.9" font-size="12" fill="#2d8a4e" opacity="0.6" text-anchor="middle">⌇</text>
    <text x="603.3" y="170.1" font-size="12" fill="#2d8a4e" opacity="0.6" text-anchor="middle">⌇</text>
    <text x="430.5" y="235.9" font-size="12" fill="#2d8a4e" opacity="0.6" text-anchor="middle">⌇</text>
    <text x="395.9" y="282.8" font-size="12" fill="#2d8a4e" opacity="0.6" text-anchor="middle">⌇</text>
  </g>

  <!-- Hazards -->
  <g id="hazards">
    <polygon points="312.9,436.6 307.9,446.6 317.9,446.6" fill="#dc2626" opacity="0.7" />
    <text x="312.9" y="444.6" font-size="7" fill="white" text-anchor="middle" font-weight="bold">!</text>
    <polygon points="548.0,182.9 543.0,192.9 553.0,192.9" fill="#dc2626" opacity="0.7" />
    <text x="548.0" y="190.9" font-size="7" fill="white" text-anchor="middle" font-weight="bold">!</text>
  </g>

  <!-- Compass -->
  <g transform="translate(60, 60)">
    <circle r="20" fill="rgba(255,255,255,0.8)" stroke="#8B7355" stroke-width="1" />
    <line x1="0" y1="-16" x2="0" y2="16" stroke="#8B7355" stroke-width="1" />
    <line x1="-16" y1="0" x2="16" y2="0" stroke="#8B7355" stroke-width="1" />
    <text x="0" y="-22" class="label compass-label" text-anchor="middle">N</text>
    <polygon points="0,-16 -4,-6 4,-6" fill="#c75c2a" />
    <polygon points="0,16 -4,6 4,6" fill="#8B7355" />
  </g>

  <text x="500.0" y="25" class="label title-label" text-anchor="middle">Delavan Lake — Bathymetric Map</text>

  <!-- Scale bar -->
  <g transform="translate(850, 590)">
    <line x1="0" y1="0" x2="136.5" y2="0" stroke="#5a4a3a" stroke-width="2" />
    <line x1="0" y1="-4" x2="0" y2="4" stroke="#5a4a3a" stroke-width="1.5" />
    <line x1="136.5" y1="-4" x2="136.5" y2="4" stroke="#5a4a3a" stroke-width="1.5" />
    <text x="68.3" y="-8" class="label" style="font-size:9px;fill:#5a4a3a" text-anchor="middle">1 mile</text>
  </g>

</svg>